<svg xmlns="http://www.w3.org/2000/svg" width="50" height="50" fill="none" viewBox="0 0 50 50">
    <path
      d="M1.34771 32.0566C1.01356 31.9452 0.568042 31.7336 0.367556 31.5888L0 31.3437L0.0111381 21.1524C0.0222762 10.9054 0.0556904 10.0477 0.434385 8.31018C0.701699 7.10727 1.61502 5.18038 2.339 4.2782C4.18792 2.00603 6.03684 0.892221 9.13322 0.201661C9.97972 0.0123132 37.8583 -0.0879295 39.8409 0.101418C42.024 0.301903 43.9843 0.970188 45.4768 2.03944C46.2564 2.59635 47.5596 3.91064 48.0831 4.66803C49.0521 6.08256 49.7538 8.09856 50.01 10.1814C50.0545 10.6158 50.1102 15.5499 50.1102 21.1524L50.1213 31.3437L49.7315 31.611C49.5087 31.7558 49.0521 31.9675 48.7068 32.0788C48.1054 32.2793 47.2143 32.2905 25.0161 32.2793C2.50607 32.2793 1.93803 32.2682 1.34771 32.0566ZM46.145 25.7079L46.4569 25.3737L46.4235 23.8478C46.3901 22.5001 46.3678 22.3219 46.2007 22.2885C46.0782 22.2662 46.0003 22.3219 46.0003 22.4221C46.0003 22.6449 45.9446 22.6449 45.5993 22.4221C45.2763 22.1994 44.5412 22.2662 44.2739 22.5224C44.0177 22.7897 43.884 23.2241 43.884 23.8255C43.884 24.2822 43.9397 24.4493 44.207 24.7388C44.4966 25.0618 44.5969 25.1064 45.0647 25.0953C45.4322 25.0841 45.6327 25.0284 45.7329 24.8836C45.8777 24.6943 45.8889 24.6943 45.9557 24.8725C46.0671 25.1509 45.655 25.6522 45.2874 25.6967C45.1203 25.719 44.8085 25.6299 44.5857 25.4962C44.0622 25.1955 43.8283 25.3626 44.207 25.7635C44.686 26.2759 45.6438 26.2425 46.145 25.7079ZM43.1155 24.8502C43.3271 24.6609 43.4385 24.4715 43.3939 24.4047C43.2826 24.2154 43.1712 24.2376 42.8816 24.4938C42.3915 24.9171 41.6341 24.7054 41.5227 24.104C41.4893 23.9035 41.5673 23.8812 42.4918 23.8255L43.4942 23.7698L43.4608 23.38C43.3939 22.6449 42.915 22.2105 42.2244 22.255C41.7121 22.2885 41.4671 22.4333 41.2109 22.8565C40.7765 23.5582 41.0438 24.7945 41.6898 25.0507C42.2022 25.2512 42.7479 25.1732 43.1155 24.8502ZM8.5429 19.8604C9.23347 19.6265 9.76809 19.2032 10.1579 18.6018C10.648 17.8221 10.6034 17.7441 9.70126 17.7887C9.04412 17.8221 8.9216 17.8666 8.81022 18.0783C8.65428 18.3567 8.1308 18.6575 7.60731 18.7577C7.09495 18.8579 6.43781 18.6463 6.04797 18.2342C5.71383 17.9001 5.34628 17.1984 5.34628 16.9199C5.34628 16.8531 6.23732 16.8085 7.96372 16.8085C10.1691 16.8085 10.6034 16.7863 10.648 16.6415C10.7594 16.3519 10.4587 14.9262 10.1691 14.3804C9.79037 13.6565 9.52305 13.4003 8.75453 13.0216C7.91917 12.5983 6.80536 12.5538 5.85863 12.9213C5.06782 13.2109 4.24361 14.0797 3.97629 14.9151C3.51963 16.3296 3.84264 18.0337 4.74482 19.0027C5.61359 19.9383 7.23975 20.3059 8.5429 19.8604ZM22.5101 19.9272C23.2118 19.7935 23.8132 19.426 24.2253 18.8802C24.4704 18.5572 24.526 18.3567 24.5372 17.8221C24.5483 16.5412 23.6907 15.9398 21.218 15.5165C19.4582 15.2158 19.5919 13.8904 21.3851 13.8904C22.1091 13.8904 22.5992 14.102 22.8776 14.5141C23.0447 14.7703 23.1338 14.8037 23.7241 14.8037C24.2253 14.8037 24.3924 14.7703 24.3924 14.6477C24.3924 14.0129 23.5348 13.133 22.6437 12.8545C21.7192 12.5649 20.3827 12.6652 19.5919 13.0884C18.8456 13.4894 18.4892 14.0017 18.4892 14.6589C18.4892 15.9398 19.2466 16.5301 21.3851 16.9199C22.2539 17.0758 22.6548 17.2763 22.8999 17.655C23.0447 17.8778 23.067 17.9892 22.9667 18.2008C22.7662 18.6463 22.343 18.8357 21.5633 18.8468C20.7391 18.8579 20.3827 18.6686 20.0263 18.0783C19.8146 17.7107 19.7812 17.6996 19.1018 17.6996C18.712 17.6996 18.3667 17.7441 18.3333 17.7998C18.2999 17.8555 18.4112 18.1674 18.5783 18.4904C19.2243 19.7378 20.6945 20.2725 22.5101 19.9272ZM29.2374 19.7601C29.4268 19.6487 29.7052 19.426 29.8723 19.2812L30.173 19.0027L30.2399 19.3257C30.2844 19.5039 30.329 19.7156 30.3624 19.7935C30.3847 19.8826 30.6297 19.9272 31.0418 19.9272H31.6878L31.6544 17.5102C31.6099 14.1465 31.3982 13.4894 30.2065 12.9325C29.6607 12.6763 29.4268 12.6318 28.558 12.6318C27.6558 12.6318 27.4776 12.6652 26.8873 12.9659C26.1522 13.3446 25.651 13.9572 25.5396 14.6143L25.4728 15.0376L26.2302 15.0042C26.9764 14.9707 26.9764 14.9707 27.1101 14.5809C27.3217 13.9015 28.4466 13.5562 29.2931 13.9126C29.6718 14.0686 29.9614 14.5698 29.9614 15.0487V15.4274L29.1038 15.5722C26.1299 16.04 25.2277 16.608 25.2277 17.9892C25.2277 18.5572 25.2723 18.7243 25.5396 19.0696C26.0854 19.7935 26.7648 20.0497 28.0123 20.0052C28.6471 19.9829 29.0035 19.9049 29.2374 19.7601ZM39.2394 19.9161C39.4733 19.8492 39.8632 19.6265 40.0971 19.4148L40.5203 19.0361L40.6206 19.4483L40.7208 19.8715H41.378H42.0462L42.024 19.426C42.0128 19.1809 41.9905 18.1785 41.9905 17.1984C41.9794 15.3049 41.8569 14.2579 41.5784 13.8013C41.0995 12.9993 39.7963 12.487 38.4821 12.5983C37.2234 12.6986 36.0651 13.6119 35.898 14.6366L35.8312 15.0264H36.5774C37.19 15.0264 37.3348 14.993 37.3794 14.8371C37.6244 14.0686 38.0254 13.7901 38.8719 13.779C39.7963 13.779 40.3198 14.2468 40.3198 15.0821C40.3198 15.4831 40.331 15.4831 38.9276 15.6502C37.6021 15.8061 36.2322 16.3964 35.7978 17.009C35.497 17.4434 35.4859 18.2453 35.7755 18.8022C36.0651 19.3592 36.3992 19.6376 37.0452 19.8715C37.5687 20.0608 38.6491 20.0831 39.2394 19.9161ZM14.8136 19.426C14.8136 19.1475 14.8136 18.8914 14.8136 18.8468C14.8248 18.7911 14.5686 18.7243 14.2456 18.6797C13.9337 18.6463 13.6219 18.5572 13.5439 18.4792C13.4659 18.4013 13.4102 17.6105 13.388 16.1402L13.3546 13.9126H14.0785H14.8136V13.3557V12.81L14.1231 12.7765L13.4214 12.7431L13.388 11.8298L13.3546 10.9054H12.586H11.8064V11.8521V12.7988H11.2495H10.6926V13.3557V13.9126H11.2495H11.8064V16.363C11.8064 18.2565 11.8398 18.9136 11.9623 19.2032C12.0514 19.4148 12.1405 19.5931 12.1628 19.5931C12.1851 19.5931 12.3967 19.671 12.6417 19.7601C12.8868 19.8492 13.4771 19.9161 13.956 19.9272H14.8136V19.426ZM17.3197 16.363V12.8545H16.54H15.7604L15.727 16.2516C15.7158 18.1228 15.727 19.7156 15.7604 19.7935C15.7938 19.8938 16.0277 19.9272 16.5623 19.9049L17.3197 19.8715V16.363ZM34.528 15.1378V10.3484H33.7484H32.9687V15.1378V19.9272H33.7484H34.528V15.1378ZM46.4458 19.3146V18.702H45.9668C45.6104 18.702 45.4211 18.6352 45.2651 18.4681C45.0758 18.2565 45.0535 18.0449 45.0535 16.0957V13.9683L45.7775 13.9349L46.5126 13.9015L46.5015 13.378V12.8545L45.7775 12.7988L45.0535 12.7431L45.0424 11.8521L45.0201 10.961H44.2627H43.4942L43.483 11.8521L43.4719 12.7431L42.9484 12.7765L42.4361 12.81V13.3669V13.9126H42.9373H43.4385L43.4608 16.2294C43.4608 17.4991 43.483 18.5906 43.4942 18.6463C43.5165 18.7131 43.5276 18.8468 43.5387 18.947C43.5387 19.0473 43.6613 19.27 43.8061 19.4371C44.0956 19.7713 44.5746 19.8938 45.6995 19.9161L46.4458 19.9272V19.3146ZM17.3754 11.1281V10.3373L16.5735 10.3707L15.7604 10.4041L15.727 11.1615L15.6935 11.9078H16.54H17.3754V11.1281Z"
      fill="black"
    />
    <path
      d="M44.7974 24.6386C44.5969 24.5606 44.3296 24.0037 44.3296 23.6585C44.3296 23.5025 44.4076 23.2241 44.4967 23.0459C44.6415 22.7785 44.7417 22.7117 45.0424 22.7117C45.6216 22.7117 45.9112 23.0124 45.9112 23.6362C45.9335 24.427 45.41 24.8836 44.7974 24.6386Z"
      fill="black"
    />
    <path
      d="M41.5449 23.2909C41.5449 22.6894 42.4026 22.4444 42.8035 22.9456C43.1043 23.3243 42.9817 23.4357 42.2355 23.4691C41.6229 23.5025 41.5449 23.4802 41.5449 23.2909Z"
      fill="black"
    />
    <path
      d="M5.3908 15.3383C5.65812 13.9349 7.59614 13.4003 8.55402 14.4695C8.83247 14.7925 9.06637 15.4163 8.96613 15.5833C8.92157 15.6502 8.20874 15.6947 7.10607 15.6947H5.32397L5.3908 15.3383Z"
      fill="black"
    />
    <path
      d="M27.433 18.7466C27.2437 18.6463 27.0209 18.4236 26.9541 18.2453C26.6311 17.4768 27.3105 16.9533 28.9255 16.7083C30.1618 16.5189 30.1173 16.4967 30.0393 17.1204C29.9391 17.9669 29.6718 18.4124 29.1149 18.6909C28.5357 18.9693 27.9231 18.9916 27.433 18.7466Z"
      fill="black"
    />
    <path
      d="M37.8695 18.7911C37.0119 18.3567 37.0007 17.4991 37.8472 17.087C38.2705 16.8976 39.685 16.5858 40.1751 16.5858C40.4535 16.5858 40.4647 16.608 40.3978 17.1315C40.3087 17.8555 39.9634 18.5127 39.5736 18.6909C39.1281 18.8914 38.1925 18.947 37.8695 18.7911Z"
      fill="black"
    />
    <path
      d="M10.1246 49.9443C10.0912 49.922 9.70134 49.8441 9.24468 49.7772C5.27953 49.1869 2.09404 46.5361 0.735191 42.7046C0.144873 41.0227 0.0112163 39.5748 0.0223544 34.7631C0.0223544 32.1122 0.0669067 30.9539 0.144873 30.9539C0.211702 30.9539 0.445601 31.0764 0.668363 31.2323C0.879986 31.3771 1.35892 31.611 1.71534 31.7336C2.37249 31.9563 2.56184 31.9563 25.0385 31.9563C49.9544 31.9563 48.3059 32.0009 49.364 31.288C49.6313 31.1098 49.8987 30.9539 49.9655 30.9539C50.1437 30.9539 50.088 39.3965 49.9098 40.5326C49.4977 43.0721 48.4173 45.2329 46.7577 46.8368C45.3989 48.1511 44.1291 48.9085 42.3916 49.432C40.5427 50 40.487 50 24.8046 50C16.7517 50 10.1469 49.9777 10.1246 49.9443ZM22.5101 46.8813C22.7329 46.8145 23.1004 46.6474 23.3232 46.4915C23.546 46.3356 23.7576 46.2131 23.791 46.2131C23.8244 46.2131 24.0138 46.3356 24.2143 46.4915C24.7489 46.8925 25.9852 47.1375 26.8317 47.0039C27.6448 46.8702 28.5247 46.5026 28.8588 46.1462C28.9925 46.0014 29.1707 45.8789 29.2487 45.8789C29.3266 45.8789 29.6051 46.1017 29.8613 46.3801L30.3291 46.8813H31.3203C31.9107 46.8813 32.3005 46.8368 32.2782 46.77C32.2671 46.7143 31.7993 46.1908 31.2647 45.6005L30.2734 44.5312L30.563 43.8406C30.9639 42.9162 31.1978 41.7578 31.0196 41.691C30.9417 41.6576 30.5964 41.6464 30.24 41.6687L29.5939 41.7021L29.5494 42.1365C29.4826 42.7602 29.0816 43.8629 28.7252 44.3864C28.0123 45.4334 27.2661 45.8232 26.1523 45.7453C25.5285 45.7007 25.4394 45.6561 25.0385 45.2329C24.6152 44.7762 24.593 44.7651 23.8356 44.7651C23.1227 44.7651 23.0559 44.7874 22.8443 45.0881C22.4879 45.5782 21.9198 45.8009 21.129 45.7453C20.5053 45.7007 20.4273 45.6561 19.9818 45.1883C19.5028 44.676 19.3024 44.2416 19.4249 43.9297C19.4806 43.785 19.8704 43.7627 22.0757 43.7627H24.6709L24.838 43.3951C25.0607 42.9273 25.4729 42.66 26.8763 42.1031C28.714 41.368 29.516 40.5104 29.516 39.3074C29.516 38.0711 28.5581 37.3026 26.9876 37.3026C25.3726 37.3026 24.2811 38.1157 24.2811 39.3297C24.2811 39.753 24.7489 40.8111 25.083 41.1675C25.2167 41.3123 25.3058 41.4348 25.2724 41.446C25.2501 41.4682 25.0496 41.5685 24.838 41.6799C24.4147 41.9138 24.4704 41.9472 23.9469 41.0895C23.4346 40.243 22.3876 39.753 21.1067 39.753C19.3803 39.753 18.0772 40.9002 17.8433 42.6377C17.5314 44.921 18.7566 46.7365 20.7726 46.9927C21.3963 47.0707 21.9198 47.0373 22.5101 46.8813ZM16.5624 40.4992C16.6515 40.4101 16.93 39.7752 17.175 39.0735C17.7987 37.3026 17.7764 37.414 17.4646 37.414C17.2195 37.414 17.1527 37.5031 16.9411 38.1936C16.8074 38.628 16.6515 38.9733 16.607 38.9733C16.5624 38.9733 16.4176 38.628 16.2728 38.1936C16.0612 37.5031 15.9944 37.414 15.7493 37.414C15.4263 37.414 15.4375 37.5365 15.9609 38.8953C16.3174 39.8421 16.3062 40.3099 15.9275 40.3099C15.6936 40.3099 15.5488 40.4769 15.6491 40.6329C15.7382 40.7888 16.373 40.6886 16.5624 40.4992ZM13.6999 39.7307C13.6999 39.92 14.3571 40.0091 14.7135 39.8643C15.3929 39.5748 15.6157 38.383 15.0922 37.7704C14.7358 37.3471 14.3459 37.2469 13.9227 37.4697C13.7445 37.5588 13.5774 37.6367 13.544 37.6367C13.5217 37.6367 13.4994 37.4028 13.5106 37.1132C13.5328 36.6343 13.5106 36.5786 13.2878 36.5452C13.0316 36.5118 13.0316 36.5118 13.0316 38.1714C13.0316 39.9312 13.0985 40.1317 13.5106 39.7752C13.6108 39.6861 13.6999 39.6639 13.6999 39.7307Z"
      fill="#E10B15"
    />
    <path
      d="M19.3246 42.6711C19.3024 42.6489 19.3692 42.415 19.4583 42.1365C19.8927 40.8668 21.5188 40.4992 22.4878 41.446C22.822 41.769 23.145 42.4929 23.0113 42.6266C22.9445 42.6934 19.3915 42.738 19.3246 42.6711Z"
      fill="#E10B15"
    />
    <path
      d="M26.4196 40.3767C25.8961 39.6416 25.807 39.352 26.0075 38.9733C26.2191 38.5723 26.4864 38.4164 26.9876 38.4164C27.7673 38.4164 28.2351 39.1404 27.9232 39.8866C27.7561 40.2765 27.1547 40.8668 26.9096 40.8668C26.8317 40.8668 26.6089 40.644 26.4196 40.3767Z"
      fill="#E10B15"
    />
    <path
      d="M13.8559 39.4411C13.2989 39.0735 13.5328 37.7481 14.1677 37.7481C14.7246 37.7481 15.0253 38.7283 14.6355 39.2852C14.4684 39.5302 14.0898 39.6082 13.8559 39.4411Z"
      fill="#E10B15"
    />
  </svg>