<svg xmlns="http://www.w3.org/2000/svg" width="50" height="50" fill="none" viewBox="0 0 50 50">
    <g clipPath="url(#a)">
      <path fill="#F60" d="M0 0h50.106v49.783H0z" />
      <path
        fill="#fff"
        d="M6.102 47.18c-.714 0-1.332-.151-1.854-.455a3.116 3.116 0 0 1-1.2-1.279c-.282-.549-.423-1.185-.423-1.909 0-.73.14-1.368.423-1.913a3.08 3.08 0 0 1 1.2-1.28c.522-.306 1.14-.46 1.854-.46.715 0 1.331.154 1.85.46.52.304.923.73 1.205 1.28.282.545.423 1.183.423 1.913 0 .724-.141 1.36-.423 1.91a3.107 3.107 0 0 1-1.205 1.278c-.519.304-1.135.456-1.85.456Zm.01-1.517c.325 0 .596-.092.814-.276.217-.188.382-.442.492-.764.113-.322.17-.689.17-1.1 0-.41-.057-.777-.17-1.1a1.712 1.712 0 0 0-.492-.763c-.218-.187-.49-.28-.815-.28-.328 0-.604.093-.828.28-.22.187-.388.442-.501.764-.11.322-.166.688-.166 1.1 0 .41.056.777.166 1.099.113.322.28.576.501.764.224.184.5.276.828.276Zm4.483 1.38v-7.066h1.9v1.233h.074c.128-.44.345-.77.648-.994.304-.227.654-.34 1.05-.34a2.954 2.954 0 0 1 .616.068v1.74a2.552 2.552 0 0 0-.382-.074 3.423 3.423 0 0 0-.446-.032c-.289 0-.546.062-.773.188a1.39 1.39 0 0 0-.534.515c-.129.221-.193.476-.193.764v3.998h-1.96Zm6.854.133c-.45 0-.852-.078-1.205-.235a1.94 1.94 0 0 1-.837-.704c-.203-.312-.304-.702-.304-1.168 0-.393.072-.722.216-.989a1.75 1.75 0 0 1 .59-.644c.248-.163.53-.285.846-.368a6.462 6.462 0 0 1 1.003-.175c.41-.043.742-.083.993-.12.252-.04.434-.098.548-.174a.384.384 0 0 0 .17-.34v-.028c0-.292-.092-.517-.276-.677-.181-.159-.439-.239-.773-.239-.353 0-.633.079-.842.235a1.078 1.078 0 0 0-.414.58l-1.812-.148c.092-.43.272-.8.542-1.113.27-.316.618-.558 1.045-.727.429-.172.926-.257 1.49-.257.393 0 .768.046 1.127.138.362.092.682.234.962.427.282.194.504.442.667.746.162.3.244.66.244 1.08v4.767H19.57v-.98h-.055c-.114.22-.265.415-.456.584-.19.166-.418.296-.685.391a2.833 2.833 0 0 1-.925.138Zm.561-1.352c.289 0 .543-.057.764-.17.22-.117.394-.274.52-.47a1.21 1.21 0 0 0 .189-.667v-.75c-.062.04-.146.077-.253.11-.105.031-.223.06-.355.088-.131.024-.263.047-.395.069l-.36.05c-.23.034-.43.088-.602.162a.964.964 0 0 0-.4.299.729.729 0 0 0-.143.46c0 .267.097.47.29.611.197.139.445.208.745.208Zm6.64-2.866v4.085h-1.96v-7.066h1.867v1.246h.083c.157-.41.419-.736.787-.975.368-.242.814-.363 1.339-.363.49 0 .918.107 1.283.322.365.214.649.521.851.92.203.395.304.868.304 1.416v4.5h-1.96v-4.15c.003-.432-.107-.77-.331-1.012-.224-.245-.532-.368-.925-.368-.264 0-.497.057-.7.17-.198.114-.355.28-.468.497a1.72 1.72 0 0 0-.17.778Zm9.023 6.882c-.635 0-1.18-.088-1.634-.263-.45-.171-.81-.406-1.076-.704a2.163 2.163 0 0 1-.52-1.002l1.813-.244c.055.14.142.273.262.395.12.123.277.221.474.295.199.077.441.115.727.115.426 0 .777-.104 1.053-.313.279-.206.419-.55.419-1.035v-1.293h-.083a1.861 1.861 0 0 1-.387.557 1.947 1.947 0 0 1-.662.428c-.27.11-.592.165-.966.165a2.9 2.9 0 0 1-1.45-.368c-.432-.248-.777-.627-1.034-1.136-.255-.512-.382-1.16-.382-1.941 0-.8.13-1.47.39-2.006.262-.537.608-.938 1.04-1.205.436-.267.913-.4 1.431-.4.396 0 .727.067.994.202.267.132.481.297.644.497.166.196.293.39.382.58h.073v-1.187h1.946v7.135c0 .6-.147 1.104-.441 1.508-.295.405-.703.709-1.224.911-.518.206-1.115.309-1.79.309Zm.04-4.37c.317 0 .584-.079.801-.235.221-.16.39-.387.506-.681.12-.298.18-.653.18-1.067 0-.414-.059-.773-.175-1.077a1.574 1.574 0 0 0-.506-.713 1.287 1.287 0 0 0-.805-.253 1.27 1.27 0 0 0-.814.262c-.221.172-.388.411-.502.718-.113.307-.17.66-.17 1.063 0 .407.057.76.17 1.058.117.294.284.523.502.685.22.16.492.24.814.24Zm7.935 1.71c-.727 0-1.353-.147-1.877-.441a3.024 3.024 0 0 1-1.205-1.26c-.283-.546-.424-1.192-.424-1.937 0-.727.141-1.365.424-1.914.282-.549.679-.977 1.191-1.283.515-.307 1.12-.46 1.813-.46.466 0 .9.075 1.301.225.405.147.758.37 1.058.667.304.297.54.672.709 1.123.169.447.253.972.253 1.573v.538h-5.966v-1.215h4.121a1.5 1.5 0 0 0-.184-.75 1.319 1.319 0 0 0-.51-.51 1.456 1.456 0 0 0-.75-.189c-.298 0-.561.07-.791.207a1.45 1.45 0 0 0-.534.548c-.129.227-.195.48-.198.759v1.155c0 .35.065.651.193.906.132.254.318.45.557.589.24.138.523.207.851.207.218 0 .417-.031.598-.092.181-.062.336-.154.465-.276a1.2 1.2 0 0 0 .294-.451l1.813.12c-.092.435-.281.815-.566 1.14a2.842 2.842 0 0 1-1.095.755c-.445.178-.959.267-1.541.267ZM44.414 39.122a.09.09 0 0 1-.066-.027.09.09 0 0 1-.027-.066v-2.15h-.719a.09.09 0 0 1-.066-.026.09.09 0 0 1-.027-.067V36.5c0-.029.009-.052.027-.07a.09.09 0 0 1 .066-.027h1.982c.029 0 .052.009.07.027a.094.094 0 0 1 .027.07v.287a.09.09 0 0 1-.027.066.095.095 0 0 1-.07.028h-.715v2.149a.09.09 0 0 1-.027.066.095.095 0 0 1-.07.027h-.358Zm1.681 0a.095.095 0 0 1-.07-.027.09.09 0 0 1-.027-.066v-2.53c0-.029.009-.052.027-.07a.095.095 0 0 1 .07-.027h.307c.036 0 .063.01.082.03.018.019.03.033.035.043l.75 1.4.758-1.4a.192.192 0 0 1 .035-.042c.018-.021.045-.031.081-.031h.303c.029 0 .052.009.07.027a.095.095 0 0 1 .027.07v2.53a.09.09 0 0 1-.027.066.095.095 0 0 1-.07.027h-.326a.095.095 0 0 1-.07-.027.098.098 0 0 1-.023-.066v-1.683l-.545 1.038a.233.233 0 0 1-.05.062.133.133 0 0 1-.082.023h-.16a.14.14 0 0 1-.085-.023.283.283 0 0 1-.046-.062l-.544-1.038v1.683a.09.09 0 0 1-.028.066.09.09 0 0 1-.066.027h-.326Z"
      />
    </g>
    <defs>
      <clipPath id="a">
        <path fill="#fff" d="M0 0h50v50H0z" />
      </clipPath>
    </defs>
  </svg>