<svg xmlns="http://www.w3.org/2000/svg" width="50" height="50" fill="none" viewBox="0 0 50 50">
  <g clip-path="url(#a)">
    <path
      fill="#E60000"
      d="M25 0a25 25 0 1 0 0 50 25 25 0 0 0 0-50Zm8.854 2.333c.667 0 1.354.063 1.792.209-4.521.937-8.125 5.146-8.104 9.958 0 .104 0 .23.02.354 7.584 1.854 10.98 6.417 10.98 12.73.083 6.312-4.917 13.25-13.355 13.27-6.812.021-13.916-5.812-13.958-15.166-.02-6.188 3.354-12.146 7.604-15.667C23 4.562 28.688 2.354 33.854 2.333Z"
    />
    <path
      fill="#fff"
      d="M33.854 2.333c.667 0 1.354.063 1.792.209-4.521.937-8.125 5.146-8.104 9.958 0 .104 0 .23.02.354 7.584 1.854 10.98 6.417 10.98 12.73.083 6.312-4.917 13.25-13.355 13.27-6.812.021-13.916-5.812-13.958-15.166-.02-6.188 3.354-12.146 7.604-15.667C23 4.562 28.688 2.354 33.854 2.333Z"
    />
  </g>
  <defs>
    <clipPath id="a">
      <path fill="#fff" d="M0 0h50v50H0z"/>
    </clipPath>
  </defs>
</svg>
