<svg xmlns="http://www.w3.org/2000/svg" width="50" height="50" fill="none" viewBox="0 0 50 50">
    <g clipPath="url(#a)">
      <path
        fill="#5C2E91"
        d="M23.958 49.933c-5.679-.283-10.841-2.302-15.125-5.924-.629-.529-1.937-1.81-2.5-2.44C3.037 37.86.913 33.256.254 28.393.084 27.132.062 26.782.062 25c0-1.786.021-2.144.192-3.414C1.762 10.43 10.712 1.6 21.917.212a26.333 26.333 0 0 1 5.979-.02 24.93 24.93 0 0 1 12.096 4.82 25.58 25.58 0 0 1 4.562 4.43c3.354 4.217 5.246 9.334 5.4 14.58.075 2.647-.162 4.966-.742 7.244-.937 3.684-2.67 6.956-5.312 10.033-.538.629-2.204 2.281-2.817 2.798-3.975 3.334-8.716 5.3-13.895 5.757-.7.063-2.621.108-3.23.08Zm-9.225-19.33a3.582 3.582 0 0 0 1.28-.561c.27-.188.291-.192.374-.13.555.404 1.005.613 1.55.708.284.05.684.063 1.83.059.804-.005 1.429-.013 1.391-.025-.041-.009-.075-.046-.075-.084 0-.045.034-.058.146-.045.08.008.15.004.154-.009.013-.025.575-.204.755-.237.062-.012.112-.004.112.02 0 .055-.367.192-.738.28-.241.054-.254.058-.079.041.317-.033.863-.237 1.221-.462A3.39 3.39 0 0 0 24 28.576c.254-.612.25-.491.25-4.887 0-3.885-.004-4.022-.08-4.147-.14-.229-.345-.275-1.137-.258-.741.012-.829.037-.979.27-.07.105-.075.38-.096 4.051l-.02 3.935-.113.212c-.18.337-.542.591-.867.604-.079.004-.112.012-.07.024.037.009.07.046.07.08 0 .041-.058.058-.229.058-.17 0-.229-.017-.229-.058 0-.034.033-.071.075-.08.038-.012-.358-.02-.887-.02-.525 0-.925.008-.884.02.038.009.071.046.071.08 0 .041-.058.058-.23.058-.124 0-.228-.017-.228-.033 0-.021-.055-.03-.125-.017-.096.012-.125 0-.125-.05 0-.054.037-.063.2-.046l.195.017-.175-.038c-.395-.083-.716-.35-.845-.695-.08-.216-.084-.329-.084-4.021 0-2.49-.016-3.852-.041-3.951-.03-.1-.1-.2-.196-.271l-.15-.117h-.775c-.692 0-.788.009-.892.08-.27.183-.254-.067-.279 4.271-.02 3.734-.025 3.943-.1 4.08-.17.32-.47.55-.83.624l-.174.038.166-.017c.092-.008.209-.029.263-.046.067-.02.092-.008.092.038 0 .07-.25.141-.33.091-.024-.012-.045-.004-.045.017 0 .03-.1.046-.25.046-.188 0-.25-.013-.25-.058 0-.034.033-.071.075-.08.037-.012-.359-.02-.888-.02-.525 0-.925.008-.883.02.037.009.07.046.07.08 0 .041-.053.058-.208.058-.158 0-.208-.017-.208-.063 0-.033.033-.066.075-.066.038-.004-.017-.021-.13-.038-.408-.07-.724-.345-.866-.761-.042-.121-.075-.184-.079-.142 0 .129-.125.08-.125-.05 0-.142.067-.208.096-.1.012.042.02-1.648.025-3.76l.004-3.834-.096-.141c-.166-.25-.3-.287-1.037-.287-.505 0-.696.016-.825.066-.192.075-.338.28-.33.458.005.07.013.092.026.046.079-.304.095.341.095 3.718 0 3.418-.016 3.988-.1 3.717-.012-.041-.016.096-.004.3.054 1.228.971 2.44 2.18 2.881.528.196.724.212 2.32.217 1.313.004 1.546-.009 1.88-.075Zm23.734-.004c1.025-.212 1.933-.79 2.483-1.59.188-.27.467-.816.462-.9 0-.04-.02-.024-.045.047-.063.175-.134.141-.1-.054.02-.13.008-.184-.055-.246-.075-.075-.42-.142-.42-.08 0 .05-.242.043-.271-.008-.013-.02.008-.045.05-.05.079-.004-.963-.078-1.263-.087-.154-.004-.2.017-.425.23-.296.27-.62.436-.958.486-.13.021-.204.038-.162.042.037 0 .07.033.07.067 0 .041-.041.062-.141.062-.159 0-.238-.067-.121-.096.041-.012-1.492-.02-3.404-.02-1.913 0-3.446.008-3.405.02.038.008.063.038.05.058-.016.021-.295.038-.629.038-.504 0-.6-.008-.6-.063 0-.033.034-.066.075-.066.038-.004-.025-.021-.146-.038-.712-.104-1.325-.707-1.425-1.407-.02-.129-.037-.204-.041-.162 0 .037-.034.07-.067.07-.041 0-.062-.041-.062-.14 0-.15.079-.255.091-.122.005.042.017-.037.03-.174l.024-.25 6.625-.021c5.175-.017 6.646-.033 6.717-.07.133-.08.263-.263.258-.363-.004-.07-.008-.075-.024-.013-.03.109-.096.042-.096-.1 0-.133.104-.17.137-.045.013.037.021-.491.021-1.178 0-.687-.008-1.216-.02-1.175-.034.121-.138.084-.138-.05 0-.141.066-.208.1-.1.012.042.012-.066.004-.237-.092-1.548-1.371-3.006-3.008-3.426l-.367-.092H33.75c-4.254 0-4.542.005-4.854.08a3.93 3.93 0 0 0-2.025 1.136c-.5.525-.821 1.078-1.004 1.753-.084.295-.092.433-.1 1.757-.005.79 0 1.403.012 1.361.046-.166.096 0 .096.325 0 .329-.05.487-.1.325-.012-.042-.017.245-.008.632.016.816.087 1.158.354 1.716.483 1.011 1.216 1.677 2.287 2.077.571.216.584.216 5.271.22 4.246.005 4.383 0 4.788-.079Zm2.962-2.672a.449.449 0 0 0-.3-.304.854.854 0 0 0-.296.02l-.187.038.216-.02c.271-.026.446.053.505.232.054.146.096.167.062.034Z"
      />
      <path
        fill="#5C2E91"
        d="M11.146 30.595c-.296-.054-.73-.204-.73-.25 0-.058.134-.045.396.046.134.046.276.084.321.084.042 0 .075.016.075.033 0 .02.059.03.125.017.096-.013.125 0 .125.05 0 .075-.012.075-.312.02ZM14.292 30.579c0-.054.029-.067.125-.054.07.012.125.004.125-.013 0-.05.383-.087.425-.046.037.038-.009.054-.559.159-.091.016-.116.008-.116-.046ZM18.154 30.612c-.1-.025-.046-.096.08-.096.062 0 .1.025.1.063 0 .062-.038.07-.18.033ZM17.754 30.55c-.12-.025-.167-.055-.137-.084.058-.058.425.005.425.075 0 .067-.03.067-.288.009ZM15.125 30.37c0-.037.037-.062.104-.062.059 0 .104-.017.104-.037 0-.021.063-.063.138-.092a.74.74 0 0 0 .187-.108.2.2 0 0 1 .117-.054c.033 0 .058-.017.058-.042 0-.02.038-.042.084-.042.046 0 .083-.029.083-.062s.025-.063.058-.063c.034 0 .067-.02.075-.045.025-.08.417 0 .438.091a.11.11 0 0 0 .1.08c.046 0 .079.02.079.041 0 .025.03.042.063.042s.062.029.062.062.038.063.083.063c.1 0 .292.087.292.133 0 .016.046.033.104.033.067 0 .104.025.104.063 0 .033-.02.062-.045.062-.096 0-.58-.258-.826-.437a1.889 1.889 0 0 0-.283-.188c-.016 0-.179.1-.362.225-.309.208-.684.4-.78.4-.02 0-.037-.03-.037-.063ZM22.375 30.192c0-.05.058-.109.167-.159.091-.041.166-.091.166-.108 0-.02.034-.033.08-.033.041 0 .087-.038.1-.084.012-.058.058-.083.129-.083.058 0 .108.009.108.017 0 .033-.475.383-.613.458-.133.066-.137.066-.137-.008ZM9.8 30.017c-.346-.242-.387-.292-.237-.292.075 0 .12.025.133.083.012.046.058.084.1.084.046 0 .079.02.079.041 0 .025.03.042.063.042s.062.02.062.042c0 .025.03.041.063.041s.062.038.062.084c0 .045-.008.083-.012.083-.009 0-.15-.092-.313-.208ZM9.092 29.359c-.338-.429-.621-1.053-.692-1.536-.02-.15-.013-.18.042-.18.05 0 .062.03.05.125-.009.067-.009.13.004.134.033.016.17.458.17.545 0 .042.017.07.034.07.046 0 .175.276.175.376 0 .045.03.083.062.083.034 0 .063.025.063.058 0 .034.03.067.062.083.034.013.063.042.063.071 0 .025.037.075.087.117.059.046.084.104.071.17-.012.096-.025.088-.191-.116ZM23.333 29.413c0-.075.025-.117.084-.133.045-.013.083-.059.083-.1 0-.046.02-.08.042-.08.025 0 .041-.028.041-.062 0-.033.03-.062.063-.062s.062-.034.062-.07c0-.122.267-.717.325-.721.075 0 .063.07-.07.383-.121.283-.45.812-.567.907-.054.046-.063.034-.063-.062ZM11.2 28.405c-.087-.033-.158-.079-.158-.1 0-.02-.025-.037-.05-.037-.063 0-.242-.179-.242-.241 0-.025-.02-.05-.046-.059-.025-.008-.037-.062-.029-.116.012-.1.017-.096.137.066.146.204.313.325.58.43.191.07.216.128.05.124a.76.76 0 0 1-.242-.067ZM21.02 28.435c-.012-.021 0-.042.03-.042.13 0 .492-.212.654-.379l.171-.179v.117c0 .079-.025.12-.08.137a.15.15 0 0 0-.1.1c-.012.042-.05.08-.087.08-.037 0-.066.016-.066.037 0 .045-.305.17-.417.17-.042 0-.092-.016-.104-.041ZM14.604 28.268a.304.304 0 0 1 .109-.083c.066-.038.079-.03.079.042 0 .062-.03.083-.109.083-.058 0-.091-.017-.079-.042ZM17.792 28.227c0-.071.012-.08.079-.042.133.067.142.125.029.125-.08 0-.108-.021-.108-.083ZM17.48 27.935c-.067-.129-.084-.291-.03-.291.017 0 .08.095.142.208.108.195.112.208.033.208-.046 0-.108-.05-.146-.125ZM15.017 27.823c.054-.113.112-.263.129-.338.041-.191.12-.12.087.08-.037.237-.154.453-.241.453-.071 0-.071-.016.025-.195ZM24.113 27.869c-.055-.059-.03-.225.033-.225.066 0 .075.058.025.179-.013.041-.042.062-.058.046ZM21.917 27.706c0-.008.02-.112.045-.229.03-.141.059-.204.088-.175.058.058-.004.425-.075.425-.033 0-.058-.008-.058-.02ZM17.333 27.502c0-.058.021-.116.042-.129.025-.013.042-.013.042.008 0 .017.012.075.025.13.02.066.008.091-.042.091-.042 0-.067-.038-.067-.1ZM15.188 19.788a.668.668 0 0 1 .087-.209.596.596 0 0 1 .362-.24c.088-.026.113-.018.113.037 0 .041-.037.066-.104.066-.059 0-.104.02-.104.042 0 .025-.034.041-.075.041-.05 0-.092.055-.13.188-.033.112-.079.187-.116.187-.05 0-.059-.03-.034-.112ZM17.292 19.8c0-.058.02-.116.041-.129.025-.012.042-.012.042.008 0 .017.012.075.025.13.02.066.008.091-.042.091-.041 0-.066-.037-.066-.1ZM22 19.817c0-.104.12-.32.212-.383.159-.1.371-.138.371-.063 0 .038-.054.071-.133.088-.133.025-.325.233-.325.35 0 .029-.03.05-.063.05S22 19.837 22 19.816ZM10.363 19.625c-.042-.054-.071-.133-.063-.174.012-.059.033-.055.13.041.116.117.15.242.062.242-.03 0-.088-.05-.13-.109ZM8.458 19.567c.054-.1.192-.192.346-.229.183-.046.138.083-.054.146-.092.029-.167.079-.167.112 0 .03-.037.054-.083.054-.075 0-.08-.012-.042-.083ZM17.042 19.484c0-.021-.046-.042-.105-.042-.066 0-.104-.025-.104-.062 0-.08.046-.08.225-.005.184.076.23.15.092.15-.058 0-.108-.016-.108-.041ZM23.846 19.496c-.075-.025-.067-.137.004-.137.033 0 .1.037.154.083l.1.08H24a.457.457 0 0 1-.154-.026ZM29.238 30.612c-.1-.025-.046-.096.079-.096.062 0 .1.025.1.063 0 .062-.038.07-.18.033ZM38 30.579c0-.054.03-.067.125-.054.07.012.125.008.125-.009 0-.05.546-.137.592-.091.029.029-.054.062-.263.108-.592.12-.579.12-.579.046ZM28.837 30.55c-.12-.025-.166-.055-.137-.084.058-.058.425.005.425.075 0 .067-.03.067-.288.009ZM28.188 30.329c-.321-.142-.959-.537-1.063-.666-.042-.054-.033-.063.063-.063.075 0 .116.025.133.084.012.045.058.083.1.083.046 0 .079.02.079.041 0 .026.03.042.063.042s.062.02.062.042c0 .025.025.041.058.041.034 0 .067.013.075.034.017.037.759.383.821.383.025 0 .046.029.046.062 0 .092-.067.08-.438-.083ZM39 30.337c0-.029.063-.075.138-.104.291-.104.395-.02.112.092-.204.079-.25.083-.25.012ZM39.542 30.104c0-.058.037-.096.104-.112.058-.013.104-.042.104-.063 0-.02.03-.037.063-.037s.062-.017.062-.042c0-.02.025-.042.058-.042.034 0 .067-.029.084-.062.012-.033.07-.062.129-.062.07 0 .104-.021.104-.075 0-.096.208-.3.304-.3.05 0 .071-.033.071-.108 0-.071.025-.117.083-.13.046-.012.084-.058.084-.1 0-.045.02-.078.041-.078.025 0 .042-.03.042-.063s.03-.062.063-.062.062-.038.062-.08c0-.137.046-.212.133-.212.08 0 .075.013-.029.2-.354.608-.912 1.17-1.466 1.461-.084.042-.096.038-.096-.033ZM26.608 29.105c-.35-.45-.662-1.14-.75-1.636-.046-.258.075-.2.134.062.083.362.15.587.195.637.021.025.088.146.146.27.059.126.138.263.18.305.037.046.07.108.07.137 0 .03.021.054.042.054.025 0 .042.034.042.08 0 .041.037.087.083.1.058.012.083.058.083.128 0 .059-.008.109-.016.109-.013 0-.105-.113-.209-.246ZM29.25 28.41c0-.05.025-.063.096-.042.05.013.108.025.125.025.02 0 .02.02.008.042-.041.07-.229.05-.229-.025ZM37.946 28.447c-.017-.025.083-.07.217-.108.133-.038.341-.133.462-.217a7.41 7.41 0 0 1 .258-.17c.017-.013.034.02.034.066 0 .055-.034.1-.084.113-.045.012-.083.037-.083.058 0 .02-.02.038-.046.038-.025 0-.07.029-.104.062a.28.28 0 0 1-.163.062c-.054 0-.104.017-.112.042-.017.054-.35.1-.38.054ZM29 28.33c0-.066.038-.078.142-.037.104.038.079.1-.038.1-.066 0-.104-.025-.104-.062ZM28.667 28.164c0-.033-.034-.062-.075-.062-.096 0-.259-.167-.259-.263 0-.037-.029-.07-.062-.07-.038 0-.063-.038-.063-.104 0-.067-.025-.105-.062-.105-.038 0-.063-.037-.063-.104 0-.058-.016-.104-.037-.104-.054 0-.104-.333-.054-.383.025-.025.058.034.087.163.084.316.25.587.542.849.246.225.258.245.154.245-.067 0-.108-.02-.108-.062ZM38.987 27.831c.046-.12.259-.196.467-.167.296.042.38.067.354.109-.025.046-.225.05-.225.004 0-.054-.395 0-.429.058-.046.083-.2.075-.167-.004Z"
      />
      <path
        fill="#5C2E91"
        d="M25.817 27.173c-.038-.137-.034-.154.037-.154.038 0 .063.038.063.1 0 .137-.067.175-.1.054ZM27.938 26.261a.286.286 0 0 1-.013-.145c.017-.084.125-.117.233-.075.063.025.059.033-.025.066a.277.277 0 0 0-.129.13c-.033.083-.042.087-.067.024ZM41.083 26.04c0-.037.038-.062.1-.062.138 0 .175.067.054.1-.137.038-.154.034-.154-.037ZM41.375 25.937c0-.054.03-.084.083-.084.055 0 .071.021.059.059-.038.1-.142.116-.142.025ZM28.07 23.784c-.016-.012-.032-.129-.032-.258-.005-.129-.013-.2-.026-.158-.029.108-.095.042-.095-.1 0-.133.12-.179.129-.046.004.038.02-.037.037-.17.071-.542.521-1.12 1.03-1.328l.241-.096h8.75l.28.133c.366.17.666.47.837.833.112.25.129.333.146.75l.02.47h-5.645c-3.104 0-5.659-.013-5.671-.03Z"
      />
      <path
        fill="#5C2E91"
        d="M39.38 22.935c-.08-.366-.25-.65-.56-.937-.262-.241-.278-.266-.178-.266.066 0 .108.02.108.062 0 .034.033.063.07.063.097 0 .305.204.305.3 0 .041.03.075.063.075s.075.05.087.112a.445.445 0 0 0 .083.166c.046.05.142.4.142.533 0 .034-.017.067-.038.08-.02.016-.058-.071-.083-.188ZM27.988 22.997c-.055-.058-.03-.224.033-.224.066 0 .075.058.025.179-.013.041-.042.062-.058.045ZM25.817 22.723c.17-1.1.812-2.12 1.725-2.727.291-.192.291-.192.291-.1 0 .05-.029.087-.062.087-.034 0-.063.021-.063.042 0 .025-.029.042-.062.042-.034 0-.063.02-.063.041 0 .025-.025.042-.058.042s-.067.029-.083.062c-.013.034-.071.063-.13.063-.07 0-.104.02-.104.075 0 .083-.329.424-.408.424-.03 0-.05.038-.05.084 0 .045-.03.095-.063.108-.033.017-.062.05-.062.083a.057.057 0 0 1-.058.058c-.03 0-.067.059-.08.125-.016.075-.054.125-.091.125-.034 0-.063.034-.063.075 0 .038-.066.22-.145.404a3.93 3.93 0 0 0-.196.575c-.03.129-.063.237-.075.237-.017 0-.021.058-.009.125.013.096 0 .125-.05.125-.054 0-.062-.03-.041-.175ZM41.508 22.69c.009-.067.009-.13-.004-.134-.029-.016-.212-.633-.212-.72 0-.033-.017-.063-.034-.063-.046 0-.216-.357-.216-.457 0-.046-.03-.084-.063-.084a.064.064 0 0 1-.062-.062c0-.033-.021-.063-.042-.063-.025 0-.058-.033-.07-.07a.414.414 0 0 0-.11-.138.173.173 0 0 1-.062-.166c.013-.096.03-.084.213.145.35.442.65 1.15.758 1.782.021.125.013.154-.046.154-.05 0-.062-.029-.05-.125ZM28.042 22.627c0-.067.025-.104.062-.104.067 0 .08.037.038.141-.038.104-.1.08-.1-.037ZM28.167 22.381c0-.058.02-.108.041-.108.025 0 .042-.029.042-.062 0-.034.038-.063.087-.063.084 0 .084.004.009.13-.117.2-.18.232-.18.103ZM28.583 21.898c0-.054.034-.1.084-.112.045-.013.083-.038.083-.054 0-.042.196-.125.292-.125.133 0 .095.058-.092.158-.1.05-.22.12-.27.158-.093.067-.097.063-.097-.025ZM38.083 21.607c-.17-.054-.212-.08-.158-.104.104-.042.492.058.492.129 0 .07-.046.07-.334-.025ZM29.333 21.544c0-.037.038-.062.1-.062.138 0 .175.067.055.1-.138.037-.155.033-.155-.038ZM40.175 20.391a.173.173 0 0 1-.05-.104c0-.029-.038-.054-.083-.054-.046 0-.084-.017-.084-.041 0-.021-.029-.042-.062-.042a.096.096 0 0 1-.088-.058c-.012-.034-.066-.071-.125-.084-.054-.016-.1-.054-.1-.087 0-.033-.037-.063-.083-.063-.1 0-.292-.087-.292-.133 0-.016-.045-.033-.104-.033-.066 0-.104-.025-.104-.063 0-.033.025-.062.054-.062.163 0 1.15.608 1.321.812.042.054.038.062-.05.062-.054 0-.12-.02-.15-.05ZM28.125 19.696c0-.054.292-.162.683-.254.404-.1.4-.1.4-.025 0 .034-.066.067-.175.083a4.578 4.578 0 0 0-.479.13c-.325.112-.429.124-.429.066ZM38.45 19.513c-.117-.025-.2-.067-.2-.1 0-.067-.013-.067.337.012.159.038.28.084.263.105-.025.045-.138.041-.4-.017ZM29.354 19.4c-.012-.02-.012-.041.009-.041.016 0 .075-.013.129-.025.066-.02.091-.008.091.041 0 .076-.187.096-.229.026ZM37.875 19.375c0-.05.025-.062.096-.041a.91.91 0 0 0 .125.025c.02 0 .02.02.008.041-.041.071-.229.05-.229-.024Z"
      />
      <path
        fill="#F0EFED"
        d="M11.083 30.579a3.45 3.45 0 0 1-2.546-2.244c-.191-.554-.208-1.012-.195-5 .012-3.514.012-3.585.095-3.726.15-.254.288-.292 1.021-.292.708 0 .934.058 1.05.258.042.075.059.862.075 4.03l.021 3.935.092.191c.129.254.325.445.575.562.204.096.229.1 1.587.1 1.517 0 1.613-.012 1.904-.254a1.28 1.28 0 0 0 .271-.345l.113-.213.02-3.942c.021-3.905.021-3.943.109-4.06.175-.237.296-.266 1.066-.253.775.012.855.041 1 .328.071.134.075.409.075 3.951 0 2.465.017 3.864.042 3.964.071.245.296.54.517.678l.204.125 2.908.025.217-.1c.267-.12.475-.32.588-.57.087-.183.087-.242.108-4.122.017-2.968.033-3.955.07-4.021.122-.213.238-.246.95-.258.78-.017.947.02 1.092.237l.096.141v4.001c0 3.818-.004 4.018-.083 4.338-.284 1.191-1.175 2.115-2.384 2.482-.283.083-.4.091-1.825.108-1.016.008-1.633 0-1.854-.034-.575-.083-1.05-.295-1.708-.765-.037-.03-.162.033-.417.2a3.55 3.55 0 0 1-1.3.549c-.425.079-3.154.075-3.554-.004ZM29.02 30.579a3.99 3.99 0 0 1-3.108-2.886c-.116-.44-.154-1.502-.12-3.505.033-1.81.054-1.952.379-2.61a4.044 4.044 0 0 1 2.575-2.128l.4-.112 4.312-.012c2.938-.009 4.438 0 4.709.033 1.412.162 2.7 1.153 3.208 2.464.233.6.258.808.28 2.353.02 1.394.02 1.428-.068 1.61-.166.342.413.317-6.958.317-5.88 0-6.542.008-6.592.067-.087.104.009.945.142 1.24.15.33.483.667.817.825.27.133.283.133 1.108.162 1.296.046 7.33.042 7.73-.004.437-.05.774-.208 1.083-.5.258-.25.329-.27.65-.212.308.058.858.058 1.225 0 .345-.054.504.008.579.22.041.117.033.167-.1.442-.584 1.228-1.563 1.982-2.909 2.236-.283.054-.962.062-4.691.058-3.371-.004-4.425-.017-4.65-.058Zm10.397-7.107c-.005-.454-.046-.67-.196-.978-.15-.304-.559-.683-.875-.812l-.242-.096h-8.792l-.283.133a1.825 1.825 0 0 0-.837.825c-.092.191-.13.35-.163.712-.025.253-.03.49-.017.528.025.067.459.071 5.717.071h5.688v-.383Z"
      />
    </g>
    <defs>
      <clipPath id="a">
        <path fill="#fff" d="M0 0h50v50H0z" />
      </clipPath>
    </defs>
  </svg>